<svg id="Group_34" data-name="Group 34" xmlns="http://www.w3.org/2000/svg" xmlns:xlink="http://www.w3.org/1999/xlink" width="819.553" height="990.081" viewBox="0 0 819.553 990.081">
  <defs>
    <clipPath id="clip-path">
      <rect id="Rectangle_18" data-name="Rectangle 18" width="819.553" height="990.081" fill="none"/>
    </clipPath>
  </defs>
  <g id="Group_31" data-name="Group 31" transform="translate(0 0)">
    <g id="Group_30" data-name="Group 30" clip-path="url(#clip-path)">
      <path id="Path_24" data-name="Path 24" d="M50.868,26.238A396.038,396.038,0,0,0,0,221C0,368.241,80,496.8,198.887,565.608,267.371,449.4,397.89,221,397.89,221Z" transform="translate(0 191.777)" fill="#ffa523"/>
      <path id="Path_25" data-name="Path 25" d="M631.258,112.3A396.536,396.536,0,0,0,354.249,0C205.258,0,75.42,81.9,7.235,203.125L354.249,397.882Z" transform="translate(52.881 0)" fill="#ff3169"/>
      <path id="Path_26" data-name="Path 26" d="M431.567,185.808A397.651,397.651,0,0,0,327.221,13.992L50.212,299.576Z" transform="translate(367.005 102.269)" fill="#00a0cf"/>
      <path id="Path_27" data-name="Path 27" d="M432.1,35.985,50.747,149.745l334.525,215.5a395.987,395.987,0,0,0,63.365-215.5A397.948,397.948,0,0,0,432.1,35.985" transform="translate(370.916 263.018)" fill="#9f49a3"/>
      <path id="Path_28" data-name="Path 28" d="M224.593,106.313V51.008S94.081,279.409,25.606,395.629A396.055,396.055,0,0,0,224.593,448.9c140.333,0,263.681-72.655,334.525-182.393L224.593,51.008Z" transform="translate(187.157 372.823)" fill="#00b4b0"/>
    </g>
  </g>
  <text id="_68_" data-name="68%" transform="translate(125.286 497.191)" fill="#fff" font-size="61" font-family="Lato-Regular, Lato"><tspan x="0" y="0">68%</tspan></text>
  <text id="_18_" data-name="18%" transform="translate(417.192 686.662)" fill="#fff" font-size="61" font-family="Lato-Regular, Lato"><tspan x="0" y="0">18%</tspan></text>
  <text id="_18_2" data-name="18%" transform="translate(607.856 296.178)" fill="#fff" font-size="61" font-family="Lato-Regular, Lato"><tspan x="0" y="0">18%</tspan></text>
  <text id="_45_" data-name="45%" transform="translate(297.663 189.06)" fill="#fff" font-size="61" font-family="Lato-Regular, Lato"><tspan x="0" y="0">45%</tspan></text>
  <text id="_35_" data-name="35%" transform="translate(648.711 482.715)" fill="#fff" font-size="61" font-family="Lato-Regular, Lato"><tspan x="0" y="0">35%</tspan></text>
</svg>
